<svg xmlns="http://www.w3.org/2000/svg" fill="none" viewBox="0 0 100 100"><g clip-path="url(#a)" filter="url(#b)"><mask id="c" width="100" height="100" x="0" y="0" mask-type="alpha" maskUnits="userSpaceOnUse"><path fill="#fff" fill-rule="evenodd" d="M70.9119 99.5723c1.575.6167 3.3709.5777 4.9606-.1916l20.5879-9.9576C98.624 88.3771 100 86.1762 100 83.7616V16.2392c0-2.4145-1.376-4.6154-3.5396-5.6618L75.8725.619067c-2.0863-1.009058-4.5279-.761952-6.359.576203-.2615.19109-.5107.40458-.7445.63975L29.3551 37.9795 12.1872 24.88c-1.5981-1.2193-3.83355-1.1194-5.31782.2378l-5.50636 5.0347c-1.815623 1.6602-1.817603 4.5312-.00448 6.1941L16.2471 50.0001 1.35854 63.6536c-1.813123 1.6628-1.811143 4.534.00448 6.1941l5.50636 5.0347c1.48427 1.3571 3.71972 1.4576 5.31782.2377l17.1679-13.0994L68.769 98.1651c.6235.6272 1.3556 1.0994 2.1429 1.4072Zm4.1033-72.391-29.906 22.8188 29.906 22.8188V27.1813Z" clip-rule="evenodd"/></mask><g mask="url(#c)"><path fill="#D9D9D9" d="M96.4614 10.593 75.8567.62085c-2.385-1.154287-5.2352-.6674006-7.1069 1.21407L1.29834 63.6535c-1.814275 1.6629-1.812192 4.534.00447 6.1941l5.50969 5.0347c1.48521 1.3572 3.722 1.4567 5.321.2378L93.3604 13.18c2.725-2.078 6.6396-.1243 6.6396 3.3139v-.2404c0-2.4135-1.3761-4.6135-3.5386-5.6605Z"/><g filter="url(#d)"><path fill="#E6E6E6" d="m96.4614 89.4074-20.6047 9.9723c-2.385 1.1543-5.2352.6673-7.1069-1.2146L1.29834 36.3464c-1.814275-1.6627-1.812192-4.5339.00447-6.194l5.50969-5.0347c1.48521-1.3572 3.722-1.4571 5.321-.2377l81.2269 61.9401c2.725 2.0784 6.6396.1246 6.6396-3.314v.2409c0 2.4134-1.3761 4.6133-3.5386 5.6604Z"/></g><g filter="url(#e)"><path fill="#fff" d="M75.8578 99.3807c-2.3857 1.1543-5.2359.6663-7.1078-1.2156 2.3064 2.3179 6.25.6764 6.25-2.602V4.43709c0-3.27857-3.9435-4.920583-6.25-2.60217C70.6219-.0467614 73.4721-.534276 75.8578.618963L96.4583 10.5773C98.6229 11.6237 100 13.8246 100 16.2391v67.5225c0 2.4146-1.3771 4.6145-3.5417 5.6615l-20.6005 9.9576Z"/></g><path fill="url(#f)" fill-rule="evenodd" d="M70.8508 99.5723c1.575.6167 3.371.5777 4.9607-.1916L96.4 89.4231c2.1635-1.046 3.5386-3.2469 3.5386-5.6615V16.2391c0-2.4144-1.3751-4.6152-3.5386-5.6617L75.8115.618974c-2.0863-1.009059-4.528-.761845-6.359.576206-.2616.19119-.5107.40458-.7446.63975L29.2941 37.9795 12.1261 24.88c-1.5981-1.2194-3.8335-1.1195-5.31777.2377l-5.50635 5.0347c-1.81552 1.6602-1.817605 4.5313-.00448 6.1941L16.186 50 1.2975 63.6536c-1.813125 1.6628-1.81104 4.5339.00448 6.194l5.50635 5.0348c1.48427 1.3571 3.71967 1.4566 5.31777.2377l17.168-13.0994 39.4138 36.1444c.6236.6272 1.3556 1.0994 2.1429 1.4072Zm4.1034-72.3911L45.0481 50l29.9061 22.8188V27.1812Z" clip-rule="evenodd" opacity=".25" style="mix-blend-mode:overlay"/></g></g><defs><filter id="b" width="112.5" height="112.5" x="-6.25" y="-4.16667" color-interpolation-filters="sRGB" filterUnits="userSpaceOnUse"><feFlood flood-opacity="0" result="BackgroundImageFix"/><feColorMatrix in="SourceAlpha" values="0 0 0 0 0 0 0 0 0 0 0 0 0 0 0 0 0 0 127 0"/><feOffset dy="2.08333"/><feGaussianBlur stdDeviation="3.125"/><feColorMatrix values="0 0 0 0 0 0 0 0 0 0 0 0 0 0 0 0 0 0 0.15 0"/><feBlend in2="BackgroundImageFix" result="effect1_dropShadow"/><feBlend in="SourceGraphic" in2="effect1_dropShadow" result="shape"/></filter><filter id="d" width="116.728" height="92.6376" x="-8.39436" y="15.6951" color-interpolation-filters="sRGB" filterUnits="userSpaceOnUse"><feFlood flood-opacity="0" result="BackgroundImageFix"/><feColorMatrix in="SourceAlpha" values="0 0 0 0 0 0 0 0 0 0 0 0 0 0 0 0 0 0 127 0"/><feOffset/><feGaussianBlur stdDeviation="4.16667"/><feColorMatrix values="0 0 0 0 0 0 0 0 0 0 0 0 0 0 0 0 0 0 0.25 0"/><feBlend in2="BackgroundImageFix" mode="overlay" result="effect1_dropShadow"/><feBlend in="SourceGraphic" in2="effect1_dropShadow" result="shape"/></filter><filter id="e" width="47.9167" height="116.667" x="60.4167" y="-8.33346" color-interpolation-filters="sRGB" filterUnits="userSpaceOnUse"><feFlood flood-opacity="0" result="BackgroundImageFix"/><feColorMatrix in="SourceAlpha" values="0 0 0 0 0 0 0 0 0 0 0 0 0 0 0 0 0 0 127 0"/><feOffset/><feGaussianBlur stdDeviation="4.16667"/><feColorMatrix values="0 0 0 0 0 0 0 0 0 0 0 0 0 0 0 0 0 0 0.25 0"/><feBlend in2="BackgroundImageFix" mode="overlay" result="effect1_dropShadow"/><feBlend in="SourceGraphic" in2="effect1_dropShadow" result="shape"/></filter><linearGradient id="f" x1="49.939" x2="49.939" y1="-.00005198" y2="100.001" gradientUnits="userSpaceOnUse"><stop stop-color="#fff"/><stop offset="1" stop-color="#fff" stop-opacity="0"/></linearGradient><clipPath id="a"><path fill="#fff" d="M0 0h100v100H0z"/></clipPath></defs></svg>
